<?xml version="1.0"?><svg width="533.3333333333333" height="533.3333333333333" xmlns="http://www.w3.org/2000/svg">
 <title>wood plank</title>

 <g>
  <title>Layer 1</title>
  <path fill="#ad6624" fill-rule="evenodd" stroke-width="1pt" id="path630" d="m13.376127,184.840942l22.589064,-18.536346c0,0 190.393543,-12.83284 200.074497,-11.406967c9.680923,1.425873 9.680923,7.129364 16.134888,7.129364c6.453964,0 123.70079,4.277603 133.382858,1.425858c9.680908,-2.85173 77.447418,7.129379 84.977051,11.406998c7.529633,4.277618 61.3125,76.99855 61.3125,78.424423c0,1.425873 -3.226868,24.239838 -3.226868,24.239838c0,0 -445.325592,41.350281 -446.401253,41.350281c-1.075661,0 -68.842737,-132.607574 -68.842737,-134.033447z"/>
  <path transform="rotate(0.217319 267.242 295.749)" fill="#e59514" fill-rule="evenodd" stroke-width="1pt" id="path629" d="m29.601013,186.64978c0,0 206.172882,-17.247757 209.428192,-7.186554c3.255341,10.061203 20.617096,2.874634 23.872437,2.874634c3.255341,0 119.363251,-4.311951 132.384552,-1.437317c13.021362,2.874619 64.021545,12.935822 67.276886,12.935822c3.25528,0 68.361908,83.365601 68.361908,84.802887c0,1.437317 -60.766174,109.235748 -60.766174,109.235748c0,0 -240.895584,17.247742 -249.577591,10.061188c-8.680878,-7.186554 -31.468201,-4.31192 -56.425751,1.437317c-24.957535,5.749237 -145.405672,7.186554 -149.746113,11.498505c-4.340553,4.313385 -10.851215,4.313385 -10.851215,4.313385c0,0 14.106544,-47.43277 17.361877,-57.493958c3.255333,-10.061188 14.106544,-24.434326 16.276768,-31.62088c2.170219,-7.186584 -1.08511,-35.93277 -7.595776,-56.055176c-6.510769,-20.12236 -15.191654,-34.495499 -15.191654,-58.929794c0,-24.435806 -3.255442,-24.435806 -3.255442,-24.435806l18.447096,0z"/>
 </g>
</svg>